{"title":"Cars 2 2011 CAM XViD DTRG","uid":6496922,"size":1185058787,"categoryP":"video","categoryS":"movies","magnet":"?xt=urn:btih:4950b990f27401a6e82891d903c04ea46c3347e8&amp;dn=Cars+2+2011+CAM+XViD+DTRG&amp;tr=udp%3A%2F%2Ftracker.openbittorrent.com%3A80&amp;tr=udp%3A%2F%2Fopen.demonii.com%3A1337&amp;tr=udp%3A%2F%2Ftracker.coppersurfer.tk%3A6969&amp;tr=udp%3A%2F%2Fexodus.desync.com%3A6969","seeders":1,"leechers":0,"uploader":"SAFCukO09","files":4,"time":1309107962,"description":"Format : AVI\nFormat/Info : Audio Video Interleave\nFile size : 1.10 GiB\nDuration : 1h 34mn\nOverall bit rate : 1 665 Kbps\nWriting library : VirtualDub build 32842/release\n\nVideo\nID : 0\nFormat : MPEG-4 Visual\nFormat profile : Advanced Simple@L5\nFormat settings, BVOP : 2\nFormat settings, QPel : No\nFormat settings, GMC : No warppoints\nFormat settings, Matrix : Default (H.263)\nMuxing mode : Packed bitstream\nCodec ID : XVID\nCodec ID/Hint : XviD\nDuration : 1h 34mn\nBit rate : 1 527 Kbps\nWidth : 720 pixels\nHeight : 320 pixels\nDisplay aspect ratio : 2.25:1\nFrame rate : 25.000 fps\nColor space : YUV\nChroma subsampling : 4:2:0\nBit depth : 8 bits\nScan type : Progressive\nCompression mode : Lossy\nBits/(Pixel*Frame) : 0.265\nStream size : 1.01 GiB (92%)\nWriting library : XviD 64\n\nAudio\nID : 1\nFormat : MPEG Audio\nFormat version : Version 1\nFormat profile : Layer 3\nMode : Joint stereo\nMode extension : MS Stereo\nCodec ID : 55\nCodec ID/Hint : MP3\nDuration : 1h 34mn\nBit rate mode : Constant\nBit rate : 128 Kbps\nChannel(s) : 2 channels\nSampling rate : 44.1 KHz\nCompression mode : Lossy\nDelay relative to video : 4ms\nStream size : 86.6 MiB (8%)\nAlignment : Split accross interleaves\nInterleave, duration : 40 ms (1.00 video frame)\nInterleave, preload duration : 500 ms\nWriting library : LAME3.98.4\n\n\n\n\n &lt;a href=&quot;\nhttp://www.imdb.com/title/tt1216475/&quot; rel=&quot;nofollow&quot; target=&quot;_NEW&quot;&gt;\nhttp://www.imdb.com/title/tt1216475/&lt;/a&gt;\n\n\n\n\n\n\n\nUsers: (961 votes) 38 reviews | Critics: 18 reviews Metascore: 58/100 (based on 35 reviews from Metacritic.com)\n\n\nStar race car Lightning McQueen and his pal Mater head overseas to compete in the World Grand Prix race. But the road to the championship becomes rocky as Mater gets caught up in an intriguing adventure of his own: international espionage.\n\nDirectors: John Lasseter, Brad Lewis\nWriters: Ben Queen (screenplay), John Lasseter (story), and 2 more credits Ã‚Â»\nStars: Owen Wilson, Larry the Cable Guy and Michael Caine\n\n\n\n\n\n\n\n\n\n\n\n\n\n &lt;a href=&quot;\nhttp://www.leetleech.org/images/05878945218332310867.png&quot; rel=&quot;nofollow&quot; target=&quot;_NEW&quot;&gt;\nhttp://www.leetleech.org/images/05878945218332310867.png&lt;/a&gt;\n\n\n\n\nSource Used\n\nVIDEO: ........................... Cars2.TS.DVD.RELIZLAB ....IMAGiNE ......Thanks\n\nAUDIO: ........................... CARS.2.iPhoneCAM-FU.Its.Free..............Thanks\n\nEng subs for parts needed ...........IMAGiNE ..........Thanks\n\n\n\n\n\nFew filters just slight saturation adjust and contrast not a great deal vid was already good .......\n\n\nEnjoy\n\n\n\n\n\nGreetz to IMAGiNE,Flawl3ss,DiLLoN,BDK,NOiR,TOXiC,THC,Ez,Rx,Boobyblue,TaRiQ786,LKRG,","torrent":{"xt":"urn:btih:4950b990f27401a6e82891d903c04ea46c3347e8","amp;dn":"Cars+2+2011+CAM+XViD+DTRG","amp;tr":["udp%3A%2F%2Ftracker.openbittorrent.com%3A80","udp%3A%2F%2Fopen.demonii.com%3A1337","udp%3A%2F%2Ftracker.coppersurfer.tk%3A6969","udp%3A%2F%2Fexodus.desync.com%3A6969"],"infoHash":"4950b990f27401a6e82891d903c04ea46c3347e8","infoHashBuffer":{"type":"Buffer","data":[73,80,185,144,242,116,1,166,232,40,145,217,3,192,78,164,108,51,71,232]},"announce":[],"urlList":[]}}